<svg xmlns="http://www.w3.org/2000/svg" xmlns:xlink="http://www.w3.org/1999/xlink" preserveAspectRatio="xMidYMid" width="119.031" height="31.969" viewBox="0 0 119.031 31.969">
  <defs>
    <style>
      .cls-1 {
        fill: #464e61;
        filter: url(#color-overlay-1);
        fill-rule: evenodd;
      }
    </style>

    <filter id="color-overlay-1" filterUnits="userSpaceOnUse">
      <feFlood flood-color="#433534"/>
      <feComposite operator="in" in2="SourceGraphic"/>
      <feBlend in2="SourceGraphic" result="solidFill"/>
    </filter>
  </defs>
  <path d="M111.639,27.711 L118.636,27.711 C118.854,27.711 119.030,27.892 119.030,28.115 L119.030,31.164 C119.030,31.387 118.854,31.567 118.636,31.567 L107.738,31.567 C107.520,31.567 107.344,31.387 107.344,31.164 L107.344,16.389 C107.344,16.166 107.520,15.985 107.738,15.985 L116.144,15.985 C116.361,15.985 116.634,16.136 116.754,16.323 L118.808,19.523 C118.928,19.710 118.848,19.860 118.631,19.860 L111.639,19.860 C111.422,19.860 111.246,20.041 111.246,20.264 L111.246,21.695 C111.246,21.918 111.422,22.098 111.639,22.098 L117.251,22.098 C117.469,22.098 117.645,22.278 117.645,22.501 L117.645,25.310 C117.645,25.534 117.469,25.713 117.251,25.713 L111.639,25.713 C111.422,25.713 111.246,25.894 111.246,26.117 L111.246,27.308 C111.246,27.531 111.422,27.711 111.639,27.711 ZM93.958,31.567 L87.290,31.567 C87.072,31.567 86.896,31.387 86.896,31.164 L86.896,28.500 C86.896,28.056 87.248,27.695 87.683,27.696 C88.823,27.696 90.798,27.699 90.798,27.711 L93.666,27.711 C95.987,27.711 97.216,26.113 97.216,23.774 C97.216,21.438 95.987,19.860 93.666,19.860 L90.798,19.860 L90.078,19.862 C89.680,19.862 89.164,19.559 88.925,19.188 L87.087,16.323 C86.967,16.136 87.047,15.985 87.264,15.985 L93.958,15.985 C98.719,15.985 101.157,19.542 101.157,23.774 C101.157,28.032 98.719,31.567 93.958,31.567 ZM79.673,31.567 L76.559,31.567 C76.341,31.567 76.165,31.387 76.165,31.164 L76.165,16.389 C76.165,16.166 76.341,15.985 76.559,15.985 L79.673,15.985 C79.891,15.985 80.067,16.166 80.067,16.389 L80.067,31.164 C80.067,31.387 79.891,31.567 79.673,31.567 ZM69.760,31.567 L65.885,31.567 C65.668,31.567 65.390,31.420 65.264,31.238 L62.832,27.721 C62.706,27.539 62.428,27.393 62.210,27.393 L61.008,27.393 C60.790,27.393 60.614,27.573 60.614,27.795 L60.614,31.164 C60.614,31.387 60.438,31.567 60.221,31.567 L57.126,31.567 C56.908,31.567 56.732,31.387 56.732,31.164 L56.732,18.553 C56.732,18.107 56.926,18.047 57.165,18.420 L60.181,23.103 C60.420,23.474 60.967,23.774 61.402,23.774 L63.950,23.774 C65.511,23.774 66.096,22.797 66.096,21.718 C66.096,20.520 65.511,19.621 63.950,19.621 L60.410,19.621 C59.975,19.621 59.429,19.318 59.190,18.947 L57.506,16.323 C57.386,16.136 57.466,15.985 57.683,15.985 L64.165,15.985 C68.067,15.985 69.861,18.582 69.861,21.678 C69.861,23.856 68.905,25.894 66.857,26.853 L69.925,31.240 C70.051,31.422 69.978,31.567 69.760,31.567 ZM44.771,28.032 L41.961,28.032 L41.961,31.164 C41.961,31.387 41.785,31.567 41.568,31.567 L38.453,31.567 C38.236,31.567 38.060,31.387 38.060,31.164 L38.060,16.389 C38.060,16.166 38.236,15.985 38.453,15.985 L44.771,15.985 C48.809,15.985 50.740,18.822 50.740,21.960 C50.740,25.255 48.809,28.032 44.771,28.032 ZM44.556,19.621 L42.355,19.621 C42.138,19.621 41.961,19.802 41.961,20.023 L41.961,23.992 C41.961,24.215 42.138,24.395 42.355,24.395 L44.556,24.395 C46.195,24.395 46.800,23.357 46.800,21.978 C46.800,20.740 46.195,19.621 44.556,19.621 ZM24.023,17.051 C22.003,20.194 18.720,20.179 16.689,17.016 L13.243,11.647 C12.527,10.531 13.004,9.625 14.308,9.625 L21.757,9.625 C22.192,9.625 22.545,9.293 22.545,8.883 C22.545,8.470 22.192,8.139 21.757,8.139 L12.567,8.139 C11.697,8.139 10.604,7.535 10.127,6.789 L6.200,0.672 C5.961,0.299 6.119,-0.001 6.555,-0.001 L21.025,-0.001 C21.460,-0.001 21.995,0.307 22.220,0.689 L27.706,9.994 C27.931,10.374 27.919,10.985 27.680,11.358 L24.023,17.051 ZM18.224,26.078 L14.797,31.413 C14.319,32.158 13.544,32.158 13.066,31.412 L0.196,11.355 C-0.043,10.982 -0.054,10.372 0.171,9.991 L4.708,2.296 C4.933,1.913 5.309,1.905 5.548,2.278 L18.225,22.035 C18.941,23.152 18.941,24.963 18.224,26.078 Z" class="cls-1"/>
</svg>
