<svg xmlns="http://www.w3.org/2000/svg" xmlns:xlink="http://www.w3.org/1999/xlink" preserveAspectRatio="xMidYMid" width="89" height="24" viewBox="0 0 89 24">
  <defs>
    <style>
      .cls-1 {
        fill: #464e61;
        filter: url(#color-overlay-1);
        fill-rule: evenodd;
      }
    </style>

    <filter id="color-overlay-1" filterUnits="userSpaceOnUse">
      <feFlood flood-color="#eee"/>
      <feComposite operator="in" in2="SourceGraphic"/>
      <feBlend in2="SourceGraphic" result="solidFill"/>
    </filter>
  </defs>
  <path d="M83.473,20.796 L88.705,20.796 C88.868,20.796 89.000,20.932 89.000,21.098 L89.000,23.386 C89.000,23.553 88.868,23.688 88.705,23.688 L80.555,23.688 C80.392,23.688 80.260,23.553 80.260,23.386 L80.260,12.298 C80.260,12.131 80.392,11.995 80.555,11.995 L86.841,11.995 C87.004,11.995 87.208,12.110 87.298,12.249 L88.834,14.651 C88.923,14.791 88.864,14.904 88.701,14.904 L83.473,14.904 C83.310,14.904 83.178,15.040 83.178,15.206 L83.178,16.280 C83.178,16.448 83.310,16.583 83.473,16.583 L87.669,16.583 C87.832,16.583 87.964,16.718 87.964,16.885 L87.964,18.993 C87.964,19.161 87.832,19.296 87.669,19.296 L83.473,19.296 C83.310,19.296 83.178,19.432 83.178,19.599 L83.178,20.492 C83.178,20.660 83.310,20.796 83.473,20.796 ZM70.249,23.688 L65.262,23.688 C65.099,23.688 64.967,23.553 64.967,23.386 L64.967,21.388 C64.967,21.053 65.231,20.783 65.556,20.783 C66.408,20.783 67.885,20.786 67.885,20.796 L70.030,20.796 C71.766,20.796 72.686,19.596 72.686,17.842 C72.686,16.088 71.766,14.904 70.030,14.904 L67.885,14.904 L67.347,14.905 C67.049,14.905 66.663,14.678 66.485,14.399 L65.110,12.249 C65.020,12.110 65.080,11.995 65.242,11.995 L70.249,11.995 C73.809,11.995 75.633,14.665 75.633,17.842 C75.633,21.035 73.809,23.688 70.249,23.688 ZM59.565,23.688 L57.236,23.688 C57.073,23.688 56.941,23.553 56.941,23.386 L56.941,12.298 C56.941,12.131 57.073,11.995 57.236,11.995 L59.565,11.995 C59.728,11.995 59.859,12.131 59.859,12.298 L59.859,23.386 C59.859,23.553 59.728,23.688 59.565,23.688 ZM52.151,23.688 L49.253,23.688 C49.090,23.688 48.882,23.577 48.788,23.441 L46.969,20.803 C46.875,20.666 46.667,20.556 46.505,20.556 L45.605,20.556 C45.443,20.556 45.311,20.690 45.311,20.858 L45.311,23.386 C45.311,23.553 45.179,23.688 45.016,23.688 L42.702,23.688 C42.539,23.688 42.407,23.553 42.407,23.386 L42.407,13.922 C42.407,13.589 42.552,13.544 42.732,13.823 L44.987,17.337 C45.166,17.616 45.574,17.842 45.900,17.842 L47.806,17.842 C48.973,17.842 49.411,17.108 49.411,16.298 C49.411,15.398 48.973,14.725 47.806,14.725 L45.158,14.725 C44.833,14.725 44.424,14.498 44.246,14.218 L42.986,12.249 C42.897,12.110 42.956,11.995 43.119,11.995 L47.967,11.995 C50.885,11.995 52.227,13.945 52.227,16.268 C52.227,17.903 51.512,19.431 49.980,20.151 L52.274,23.442 C52.369,23.578 52.314,23.688 52.151,23.688 ZM33.461,21.035 L31.360,21.035 L31.360,23.386 C31.360,23.553 31.229,23.688 31.066,23.688 L28.737,23.688 C28.574,23.688 28.442,23.553 28.442,23.386 L28.442,12.298 C28.442,12.131 28.574,11.995 28.737,11.995 L33.461,11.995 C36.482,11.995 37.926,14.125 37.926,16.479 C37.926,18.952 36.482,21.035 33.461,21.035 ZM33.301,14.725 L31.655,14.725 C31.492,14.725 31.360,14.860 31.360,15.026 L31.360,18.004 C31.360,18.171 31.492,18.307 31.655,18.307 L33.301,18.307 C34.526,18.307 34.979,17.527 34.979,16.493 C34.979,15.564 34.526,14.725 33.301,14.725 ZM17.944,12.795 C16.434,15.155 13.978,15.144 12.459,12.770 L9.882,8.741 C9.346,7.903 9.703,7.224 10.679,7.224 L16.250,7.224 C16.575,7.224 16.839,6.974 16.839,6.666 C16.839,6.358 16.575,6.108 16.250,6.108 L9.376,6.108 C8.725,6.108 7.908,5.655 7.551,5.096 L4.614,0.506 C4.436,0.227 4.554,0.001 4.880,0.001 L15.702,0.001 C16.027,0.001 16.427,0.233 16.596,0.519 L20.698,7.500 C20.867,7.786 20.858,8.245 20.679,8.524 L17.944,12.795 ZM13.607,19.570 L11.044,23.572 C10.686,24.131 10.107,24.131 9.750,23.572 L0.124,8.522 C-0.054,8.242 -0.063,7.784 0.105,7.498 L3.499,1.724 C3.667,1.438 3.948,1.433 4.127,1.712 L13.608,16.536 C14.143,17.374 14.143,18.733 13.607,19.570 Z" class="cls-1"/>
</svg>
